<?xml version="1.0" encoding="utf-8"?>
<!-- Generator: Adobe Illustrator 22.0.1, SVG Export Plug-In . SVG Version: 6.00 Build 0)  -->
<svg version="1.1" id="圖層_1" xmlns="http://www.w3.org/2000/svg" xmlns:xlink="http://www.w3.org/1999/xlink" x="0px" y="0px"
	 viewBox="0 0 1949.8 731.9" enable-background="new 0 0 1949.8 731.9" xml:space="preserve">
<g>
	<g>
		<line fill="none" stroke="#000000" stroke-width="15" stroke-miterlimit="10" x1="1757.6" y1="584" x2="1299" y2="584"/>
		<line fill="none" stroke="#000000" stroke-width="14" stroke-miterlimit="10" x1="712" y1="583.5" x2="187.4" y2="583.5"/>
		<g>
			<g>
				<path d="M834.5,647l-8.6-28.9H785l-9.1,28.9h-38l47-146.8h49.4L882.2,647H834.5z M793,586.1h24.6l-12.3-42.6L793,586.1z"/>
				<path d="M880.5,604.6l43.4-7.5c3.6,11.8,13,17.7,28.1,17.7c11.8,0,17.6-3,17.6-9c0-3.2-1.4-5.6-4.1-7.4
					c-2.7-1.8-7.6-3.3-14.6-4.7c-26.7-4.9-43.9-11.4-51.4-19.3c-7.6-8-11.4-17.3-11.4-28.1c0-13.8,5.4-25.3,16.3-34.5
					c10.9-9.2,26.6-13.8,47-13.8c31,0,51.5,12,61.5,36l-38.7,11.3c-4-9.8-12.2-14.7-24.4-14.7c-10.2,0-15.3,3-15.3,9.1
					c0,2.7,1.2,4.8,3.5,6.3c2.3,1.5,6.8,2.9,13.4,4.3c18.2,3.7,31.2,7,38.8,9.9c7.7,2.9,14.1,7.7,19.2,14.7s7.7,15.1,7.7,24.5
					c0,14.8-6.2,26.9-18.7,36.1s-28.9,13.8-49.2,13.8C912.1,649.3,889.2,634.4,880.5,604.6z"/>
				<path d="M1081.8,500.3V647H1035V500.3H1081.8z"/>
				<path d="M1192.3,647l-8.6-28.9h-40.8l-9.1,28.9h-38l47-146.8h49.4l47.8,146.8H1192.3z M1150.9,586.1h24.6l-12.3-42.6
					L1150.9,586.1z"/>
			</g>
		</g>
	</g>
	<g>
		<g>
			<g>
				<path d="M278.2,339.4c0,3.9-1,6.9-2.9,9c-1.9,2.1-5.2,3.8-9.8,4.9v6.2h84.4v-6.2c-4.8-1.3-8.1-3-9.9-5c-1.9-2.1-2.8-5-2.8-8.9
					V115.2c0-3.9,0.9-6.8,2.8-8.9c1.8-2.1,5.2-3.7,9.9-5V95h-84.4v6.2c4.8,1.2,8.1,2.8,9.9,4.9c1.8,2.1,2.8,5.1,2.8,9v85.3H122.3
					v-85.3c0-3.9,0.9-6.9,2.8-9c1.8-2.1,5.2-3.8,9.9-4.9V95H50.6v6.2c4.8,1.3,8.1,3,9.9,5c1.8,2.1,2.8,5,2.8,8.9v224.2
					c0,3.9-0.9,6.8-2.8,8.9c-1.9,2.1-5.2,3.7-9.9,5v6.2H135v-6.2c-4.6-1.2-7.9-2.8-9.8-4.9c-1.9-2.1-2.9-5.1-2.9-9V244h155.9V339.4z
					"/>
			</g>
		</g>
		<path d="M611,292.1H489.6l-18,36.2c-2.5,5-3.7,9-3.7,11.9c0,5.5,4.4,9.4,13.1,11.5v6h-88.3v-6c5.2-1,9.2-2.8,11.9-5.3
			c2.7-2.5,5.9-7.4,9.4-14.7l98.2-197.8c3.1-6.3,4.7-11.3,4.7-15.1c0-5.8-3.8-9.9-11.3-12.4v-6h94.7v6c-7.7,2.1-11.5,5.8-11.5,11.1
			c0,3.6,1.2,7.8,3.7,12.4l101.8,198.4c4.3,8.4,8.1,14.2,11.3,17.3c3.3,3.1,7.6,5.1,13.1,6.1v6h-98.3v-6c8.6-1.4,13-5.3,13-11.7
			c0-2.6-1.3-6.5-3.9-11.7L611,292.1z M594.2,256.9l-43.3-91.7l-44,91.7H594.2z"/>
		<path d="M831.2,251.6v87.8c0,3.9,0.9,6.9,2.8,9c1.9,2.1,5.1,3.8,9.6,4.9v6.2h-82.9v-6.2c4.7-1.3,7.9-3,9.7-5
			c1.8-2.1,2.7-5,2.7-8.9v-224c0-4-0.9-7-2.7-9.1c-1.8-2.1-5.1-3.7-9.7-5V95H927c20.2,0,36.3,1.2,48.2,3.5
			c11.9,2.3,22.2,6.4,31.1,12.2c10.3,6.7,17.9,15.8,23,27.3c4.8,11.1,7.2,23,7.2,35.7c0,43.1-24.1,68.4-72.2,75.8l51.6,73.1
			c9.1,12.8,15.7,21,20,24.7c4.2,3.7,9.4,5.7,15.5,6.1v6.2h-96v-6.2c6.6-1,9.9-3.4,9.9-7c0-2.3-3-7.9-9.1-16.9l-53.8-77.9H831.2z
			 M831.2,208h89.6c13.2,0,22.6-0.4,28-1.2c5.5-0.8,10.4-2.4,15-4.8c9.9-5.3,14.8-14.9,14.8-28.7c0-13.8-4.9-23.4-14.8-28.7
			c-4.7-2.6-9.6-4.2-14.9-4.9c-5.3-0.7-14.6-1.1-28.1-1.1h-89.6V208z"/>
		<path d="M1189.7,251.6v87.8c0,3.9,0.9,6.9,2.8,9c1.9,2.1,5.1,3.8,9.6,4.9v6.2h-82.9v-6.2c4.7-1.3,7.9-3,9.7-5
			c1.8-2.1,2.7-5,2.7-8.9v-224c0-4-0.9-7-2.7-9.1c-1.8-2.1-5.1-3.7-9.7-5V95h166.2c20.2,0,36.3,1.2,48.2,3.5s22.2,6.4,31,12.2
			c10.3,6.7,17.9,15.8,23,27.3c4.8,11.1,7.2,23,7.2,35.7c0,43.1-24.1,68.4-72.2,75.8l51.6,73.1c9.1,12.8,15.7,21,20,24.7
			c4.2,3.7,9.4,5.7,15.5,6.1v6.2h-96v-6.2c6.6-1,9.9-3.4,9.9-7c0-2.3-3-7.9-9.1-16.9l-53.8-77.9H1189.7z M1189.7,208h89.5
			c13.2,0,22.6-0.4,28-1.2c5.5-0.8,10.4-2.4,15-4.8c9.9-5.3,14.8-14.9,14.8-28.7c0-13.8-4.9-23.4-14.8-28.7
			c-4.7-2.6-9.6-4.2-14.9-4.9c-5.3-0.7-14.6-1.1-28.1-1.1h-89.5V208z"/>
		<g>
			<g>
				<path d="M1487,349.3c-1.9,2-5.2,3.7-10.1,5v6.1h85.7v-6.1c-4.7-1.2-8-2.8-10-4.9c-1.9-2.1-2.9-5.2-2.9-9.1V118.3
					c0-3.8,0.9-6.8,2.8-8.9c1.9-2.1,5.2-3.7,10.1-4.9v-6.1H1477v6.1c4.8,1.3,8.2,2.9,10.1,5c1.9,2,2.8,5,2.8,8.8v221.9
					C1489.9,344.2,1488.9,347.3,1487,349.3z"/>
			</g>
		</g>
		<g>
			<g>
				<path d="M1888.8,115.4c-3.8,3-7,4.5-9.9,4.5c-1.7,0-6.5-1.5-14.3-4.5c-22.7-9.2-41.6-15.5-56.7-19c-15.2-3.4-31.5-5.2-49.1-5.2
					c-41.8,0-73.2,9.6-94.1,28.9c-16,14.6-23.9,33.1-23.9,55.5c0,13.6,3.1,25.6,9.5,36.1c7,11.6,16.6,20.4,28.8,26.2
					c8.6,4.1,17.2,7.1,25.7,9c8.6,1.9,23.3,3.8,44,5.9l31,3.1c20.8,2.2,34.6,4.6,41.4,7.2c9.8,3.7,14.7,10,14.7,18.8
					c0,5.8-2.1,11.4-6.2,16.7c-4.2,5.4-9.7,9.6-16.7,12.9c-12.6,5.8-27.8,8.7-45.7,8.7c-16.4,0-33.7-2.7-51.9-8.1
					c-18.2-5.4-31.7-11.9-40.4-19.4c-5.8-4.9-8.6-10.3-8.6-16.1c0-0.5,0-1.4,0-2.5l-5.8-2.7l-29.8,64.9l5.8,2.9
					c3.8-2.8,6.5-4.3,8.2-4.3c1.5,0,6,1.7,13.5,5c35.4,16.8,71.3,25.2,107.6,25.2c20.2,0,39.2-2.4,56.9-7.2
					c23.7-6.3,41.2-16.1,52.5-29.2c12.5-14.5,18.7-31,18.7-49.6c0-11.7-2.6-22.8-7.9-33.1c-5.3-10.3-12.5-18.7-21.6-25
					c-9-6.1-19.3-10.8-30.9-14.1c-11.6-3.4-26.8-6-45.6-7.9l-31.6-3.1c-21.2-2.1-35-4-41.4-5.8c-12.5-3.6-18.7-10.4-18.7-20.3
					c0-6.1,2.4-11.7,7.3-16.8c4.9-5.2,11.3-9,19.2-11.6c10.9-3.4,23.4-5,37.6-5c32.2,0,60.2,8,84.1,24c7.8,5,11.7,9.8,11.7,14.1
					c0,0.8-0.1,1.8-0.2,3.1l5.6,3.1l32.8-62.3L1888.8,115.4z"/>
			</g>
		</g>
	</g>
</g>
</svg>
